<?xml version="1.0" standalone="no"?>
<!DOCTYPE svg PUBLIC "-//W3C//DTD SVG 20010904//EN"
 "http://www.w3.org/TR/2001/REC-SVG-20010904/DTD/svg10.dtd">
<svg version="1.0" xmlns="http://www.w3.org/2000/svg"
 width="320.000000pt" height="320.000000pt" viewBox="0 0 320.000000 320.000000"
 preserveAspectRatio="xMidYMid meet">

<g transform="translate(0.000000,320.000000) scale(0.100000,-0.100000)"
fill="#000000" stroke="none">
<path d="M1640 2972 c-83 -11 -217 -73 -325 -150 -336 -239 -612 -669 -679
-1057 -29 -166 -19 -371 25 -519 17 -56 30 -78 72 -120 52 -52 160 -114 267
-155 116 -45 333 -91 427 -91 28 0 54 -4 57 -9 5 -7 -25 -472 -38 -603 l-5
-48 146 0 145 0 -6 103 c-3 56 -8 181 -11 277 -3 96 -8 198 -11 226 l-5 51 84
12 c262 36 502 159 642 328 65 79 129 202 145 279 17 81 7 304 -19 416 -76
333 -276 707 -468 878 -142 126 -319 199 -443 182z"/>
</g>
</svg>
